<?xml version="1.0" encoding="utf-8"?>
<svg width="24" height="24" viewBox="0 0 24 24" xmlns="http://www.w3.org/2000/svg">
    <symbol id="chip" class="icon" viewBox="0 0 24 24">
        <path d="M18.6265 19.8791H5.02659C4.53676 19.8791 4.1394 19.4688 4.1394 18.9634V4.81387C4.1394 4.30927 4.53676 3.89966 5.02659 3.89966H18.6265C19.1149 3.89966 19.5115 4.31001 19.5115 4.81387V18.9634C19.5115 19.4688 19.1149 19.8791 18.6265 19.8791ZM5.02659 4.71889C4.97892 4.71889 4.93918 4.76268 4.93918 4.81314V18.9627C4.93918 19.0147 4.97892 19.0569 5.02659 19.0569H18.6265C18.6727 19.0569 18.7117 19.0132 18.7117 18.9627V4.81314C18.7117 4.76417 18.6727 4.71889 18.6265 4.71889H5.02659Z"/>
        <path d="M15.7121 16.8475H7.94044C7.45276 16.8475 7.05469 16.4357 7.05469 15.9333V7.84634C7.05469 7.34174 7.45276 6.93213 7.94044 6.93213H15.7121C16.2005 6.93213 16.5971 7.34248 16.5971 7.84634V15.9333C16.5971 16.4357 16.2005 16.8475 15.7121 16.8475ZM7.94044 7.75136C7.89203 7.75136 7.85374 7.79514 7.85374 7.84561V15.9325C7.85374 15.983 7.8942 16.0253 7.94044 16.0253H15.7121C15.7576 16.0253 15.7981 15.983 15.7981 15.9325V7.84561C15.7981 7.79514 15.7569 7.75136 15.7121 7.75136H7.94044Z"/>
        <path d="M7.9983 4.70611C7.66885 4.70611 7.40082 4.34102 7.40082 3.89282V0.691578C7.40082 0.243375 7.66885 0.020752 7.9983 0.020752C8.32703 0.020752 8.5958 0.244117 8.5958 0.691578V3.89282C8.5958 4.34102 8.32703 4.70611 7.9983 4.70611Z"/>
        <path d="M11.8901 4.70611C11.5607 4.70611 11.2933 4.34102 11.2933 3.89282V0.691578C11.2933 0.243375 11.5607 0.020752 11.8894 0.020752C12.2196 0.020752 12.4875 0.244117 12.4875 0.691578V3.89282C12.4875 4.34102 12.2196 4.70611 11.8901 4.70611Z"/>
        <path d="M15.7352 4.70611C15.4058 4.70611 15.137 4.34102 15.137 3.89282V0.691578C15.137 0.243375 15.4058 0.020752 15.7345 0.020752C16.0639 0.020752 16.332 0.244117 16.332 0.691578V3.89282C16.332 4.34102 16.0639 4.70611 15.7352 4.70611Z"/>
        <path d="M4.92588 15.785C4.92588 16.1242 4.57259 16.3995 4.13694 16.3995H1.01802C0.581646 16.3995 0.367798 16.1242 0.367798 15.7865C0.367798 15.4475 0.582369 15.1721 1.01802 15.1721H4.13694C4.57259 15.1721 4.92588 15.4475 4.92588 15.785Z"/>
        <path d="M4.92588 11.7909C4.92588 12.1271 4.57259 12.4038 4.13694 12.4038H1.01802C0.581646 12.4038 0.367798 12.1271 0.367798 11.7909C0.367798 11.4518 0.582369 11.178 1.01802 11.178H4.13694C4.57259 11.1772 4.92588 11.4518 4.92588 11.7909Z"/>
        <path d="M4.92588 7.8422C4.92588 8.17835 4.57259 8.45514 4.13694 8.45514H1.01802C0.581646 8.45514 0.367798 8.17983 0.367798 7.8422C0.367798 7.50308 0.582369 7.22778 1.01802 7.22778H4.13694C4.57259 7.22778 4.92588 7.50308 4.92588 7.8422Z"/>
        <path d="M8.02357 23.761C7.69412 23.761 7.42609 23.3974 7.42609 22.9477V19.7465C7.42609 19.2983 7.69411 19.0771 8.02284 19.0771C8.35228 19.0771 8.61961 19.2991 8.61961 19.7465V22.9477C8.62033 23.3974 8.35229 23.761 8.02357 23.761Z"/>
        <path d="M11.9116 23.761C11.5829 23.761 11.3149 23.3974 11.3149 22.9477V19.7465C11.3149 19.2983 11.5829 19.0771 11.9116 19.0771C12.2418 19.0771 12.5084 19.2991 12.5084 19.7465V22.9477C12.5084 23.3974 12.2418 23.761 11.9116 23.761Z"/>
        <path d="M15.7579 23.761C15.4285 23.761 15.1604 23.3974 15.1604 22.9477V19.7465C15.1604 19.2983 15.4285 19.0771 15.7579 19.0771C16.0874 19.0771 16.3562 19.2991 16.3562 19.7465V22.9477C16.3568 23.3974 16.0881 23.761 15.7579 23.761Z"/>
        <path d="M23.2889 15.7361C23.2889 16.0736 22.9342 16.349 22.4993 16.349H19.3811C18.9455 16.349 18.7301 16.0736 18.7301 15.7376C18.7301 15.3984 18.9461 15.1216 19.3811 15.1216H22.4993C22.9342 15.1216 23.2889 15.3984 23.2889 15.7361Z"/>
        <path d="M23.2889 11.7394C23.2889 12.0785 22.9342 12.3554 22.4993 12.3554H19.3811C18.9455 12.3554 18.7301 12.08 18.7301 11.7409C18.7301 11.4033 18.9461 11.1265 19.3811 11.1265H22.4993C22.9342 11.1265 23.2889 11.4018 23.2889 11.7394Z"/>
        <path d="M23.2889 7.79385C23.2889 8.13149 22.9342 8.4068 22.4993 8.4068H19.3811C18.9455 8.4068 18.7301 8.13298 18.7301 7.79385C18.7301 7.45473 18.9461 7.18091 19.3811 7.18091H22.4993C22.9342 7.18091 23.2889 7.45473 23.2889 7.79385Z"/>
    </symbol>
</svg>
