<svg width="16" height="19" viewBox="0 0 16 19" fill="none" xmlns="http://www.w3.org/2000/svg">
<path d="M8.7207 11.1582H7.29102L6.99219 5.43359H9.01953L8.7207 11.1582ZM6.96875 13.1621C6.96875 12.834 7.05664 12.5859 7.23242 12.418C7.4082 12.25 7.66406 12.166 8 12.166C8.32422 12.166 8.57422 12.252 8.75 12.4238C8.92969 12.5957 9.01953 12.8418 9.01953 13.1621C9.01953 13.4707 8.92969 13.7148 8.75 13.8945C8.57031 14.0703 8.32031 14.1582 8 14.1582C7.67188 14.1582 7.41797 14.0723 7.23828 13.9004C7.05859 13.7246 6.96875 13.4785 6.96875 13.1621Z" fill="#FF761A"/>
<circle cx="8" cy="10" r="7.5" stroke="#FF761A"/>
</svg>
