<?xml version="1.0" encoding="utf-8"?>
<svg width="88" height="87" viewBox="0 0 88 87" fill="none" xmlns="http://www.w3.org/2000/svg">
    <symbol id="ghost" class="icon" viewBox="0 0 88 87">
        <path fill-rule="evenodd" clip-rule="evenodd" d="M44.4036 85.4716C68.4337 85.0589 87.5768 65.682 87.1599 42.1926C86.7436 18.7026 66.9256 -0.00412816 42.8949 0.409122C18.8642 0.820608 -0.278877 20.1981 0.13803 43.6869C0.55434 67.1769 20.373 85.8837 44.4031 85.4704L44.4036 85.4716Z" fill="#FFCFAB"/>
        <path fill-rule="evenodd" clip-rule="evenodd" d="M50.9296 77.8944C46.7116 77.9672 49.096 85.3258 44.0035 85.4134C38.9104 85.5016 40.4753 77.4617 36.2387 77.5346C32.004 77.6075 34.2569 85.5809 29.4559 85.6632C27.197 85.702 25.0527 84.1084 24.9386 77.7286C24.7547 67.3968 24.9685 40.0793 24.9685 40.0793C24.9685 40.0793 25.8047 23.7639 42.9051 23.4706C60.0048 23.1767 62.0326 34.7712 62.1156 39.441L62.7828 77.0784C62.7828 77.0784 63.0755 85.086 58.5522 85.1636C54.029 85.2412 55.1471 77.8221 50.9296 77.8944Z" fill="white" fill-opacity="0.946" stroke="#150202" stroke-width="1.98649" stroke-linecap="square"/>
        <path d="M38.416 49.2979C39.0953 49.2864 39.6357 48.7102 39.6231 48.0108C39.6105 47.3114 39.0497 46.7538 38.3704 46.7653C37.6912 46.7768 37.1508 47.353 37.1634 48.0524C37.176 48.7518 37.7368 49.3094 38.416 49.2979Z" fill="#2A2121" stroke="black" stroke-width="1.98649"/>
        <path d="M58.0979 48.9299C58.7772 48.9184 59.3176 48.3421 59.305 47.6428C59.2924 46.9434 58.7316 46.3857 58.0523 46.3972C57.3731 46.4087 56.8327 46.985 56.8453 47.6844C56.8578 48.3837 57.4187 48.9414 58.0979 48.9299Z" fill="#2A2121" stroke="black" stroke-width="1.98649"/>
        <path fill-rule="evenodd" clip-rule="evenodd" d="M51.0181 58.7526C52.0072 58.7356 52.8058 58.5198 52.7884 57.5464C52.7855 57.314 52.736 57.0846 52.6427 56.8711C52.5494 56.6577 52.4141 56.4645 52.2447 56.3026C52.0753 56.1408 51.8751 56.0135 51.6555 55.9281C51.436 55.8427 51.2014 55.8008 50.9653 55.8048C50.7293 55.8089 50.4964 55.8588 50.28 55.9518C50.0636 56.0447 49.868 56.1788 49.7044 56.3464C49.5409 56.514 49.4126 56.7117 49.3269 56.9282C49.2413 57.1448 49.1999 57.3758 49.2053 57.6081C49.2232 58.5816 50.0284 58.7697 51.0181 58.7526Z" stroke="black" stroke-width="1.98649"/>
        <path fill-rule="evenodd" clip-rule="evenodd" d="M50.9977 57.6128C49.1766 58.0355 48.2586 57.0767 48.2759 58.0508C48.2932 59.0248 50.0283 58.7697 51.0174 58.7526C52.0071 58.7356 53.6706 58.541 53.6533 57.567C53.6353 56.5935 52.8189 57.1902 50.9977 57.6128V57.6128Z" stroke="black" stroke-width="1.98649"/>
        <path fill-rule="evenodd" clip-rule="evenodd" d="M20.8024 42.2579L68.285 41.7359L68.3059 42.9116L67.1113 42.9321L67.1424 44.6957L65.9478 44.7156L65.9795 46.4792L64.7849 46.4997L64.8166 48.2632L63.0247 48.2932L63.0558 50.0567L54.6949 50.2002L54.6639 48.4367L53.4693 48.4578L53.4382 46.6943L51.6464 46.7249L51.5842 43.1984L48.5978 43.2502L48.6605 46.7766L46.8686 46.8072L46.9003 48.5707L45.1084 48.6013L45.1401 50.3648L34.3907 50.5493L34.359 48.7858L32.5672 48.8164L32.5361 47.0529L30.7443 47.084L30.7132 45.3205L28.9213 45.3517L28.8909 43.5882L20.8287 43.7269L20.8544 45.1965L16.9726 45.2629L16.9469 43.7933L20.8287 43.7269L20.8024 42.2573V42.2579Z" fill="black"/>
        <path fill-rule="evenodd" clip-rule="evenodd" d="M32.4788 43.821L34.1512 43.7916L34.1792 45.3593L35.8516 45.3305L35.8236 43.7634L37.496 43.7346L37.5235 45.3017L39.1959 45.2735L39.2233 46.8407L40.8957 46.8119L40.9232 48.3791L39.2508 48.4085L39.2233 46.8407L35.8785 46.8983L37.5509 46.8689L37.5235 45.3017L35.851 45.3311L35.8791 46.8983L37.5515 46.8689L37.579 48.4367L35.9066 48.4655L35.8791 46.8983L34.2067 46.9265L34.1792 45.3593L32.5068 45.3881L32.4788 43.821ZM53.391 44.0496L55.0634 44.0202L55.0915 45.588L56.7639 45.5592L56.7358 43.992L58.4082 43.9632L58.4357 45.5304L60.1081 45.5022L60.1356 47.0694L61.808 47.0406L61.8355 48.6077L60.1631 48.6371L60.1356 47.0694L56.7908 47.127L58.4632 47.0976L58.4357 45.5304L56.7633 45.5598L56.7914 47.127L58.4638 47.0976L58.4913 48.6654L56.8189 48.6942L56.7914 47.127L55.119 47.1552L55.0915 45.588L53.4191 45.6174L53.3916 44.0496H53.391Z" fill="white"/>
    </symbol>
</svg>
