<svg width="54" height="35" viewBox="0 0 54 35" fill="none" xmlns="http://www.w3.org/2000/svg">
<g filter="url(#filter0_d_712_2342)">
<rect x="5" y="8" width="44" height="21" rx="3" fill="#242323"/>
<path d="M42.3214 4L45.3834 8.5H39.2594L42.3214 4Z" fill="#242323"/>
</g>
<path d="M21.5273 22H20.2382V18.4604H16.6181V22H15.3344V14.1475H16.6181V17.3594H20.2382V14.1475H21.5273V22ZM26.2751 22.1074C25.3513 22.1074 24.628 21.8389 24.1052 21.3018C23.586 20.7611 23.3264 20.0181 23.3264 19.0728C23.3264 18.1024 23.5681 17.3397 24.0515 16.7847C24.5349 16.2297 25.1991 15.9521 26.0442 15.9521C26.8283 15.9521 27.4478 16.1903 27.9026 16.6665C28.3573 17.1427 28.5847 17.798 28.5847 18.6323V19.3145H24.6262C24.6441 19.891 24.7999 20.335 25.0935 20.6465C25.3871 20.9544 25.8007 21.1084 26.3342 21.1084C26.6851 21.1084 27.011 21.0762 27.3117 21.0117C27.6161 20.9437 27.9419 20.8327 28.2893 20.6787V21.7046C27.9813 21.8514 27.6698 21.9552 27.3547 22.0161C27.0396 22.077 26.6797 22.1074 26.2751 22.1074ZM26.0442 16.9082C25.6431 16.9082 25.3209 17.0353 25.0774 17.2896C24.8375 17.5438 24.6942 17.9144 24.6477 18.4014H27.344C27.3368 17.9108 27.2186 17.5402 26.9895 17.2896C26.7603 17.0353 26.4452 16.9082 26.0442 16.9082ZM31.501 22H30.2388V13.6426H31.501V22ZM36.5442 22.1074C35.7923 22.1074 35.2086 21.8371 34.7932 21.2964H34.718C34.7682 21.7977 34.7932 22.1021 34.7932 22.2095V24.6426H33.531V16.0596H34.5515C34.5802 16.1706 34.6393 16.4355 34.7288 16.8545H34.7932C35.1871 16.2529 35.7779 15.9521 36.5657 15.9521C37.3069 15.9521 37.8834 16.2207 38.2952 16.7578C38.7106 17.2949 38.9182 18.0487 38.9182 19.019C38.9182 19.9894 38.707 20.7467 38.2845 21.291C37.8655 21.8353 37.2854 22.1074 36.5442 22.1074ZM36.2381 16.9834C35.7368 16.9834 35.3697 17.1302 35.137 17.4238C34.9078 17.7174 34.7932 18.1865 34.7932 18.8311V19.019C34.7932 19.7424 34.9078 20.2669 35.137 20.5928C35.3662 20.915 35.7403 21.0762 36.2596 21.0762C36.6964 21.0762 37.033 20.8971 37.2693 20.5391C37.5056 20.181 37.6238 19.6707 37.6238 19.0083C37.6238 18.3423 37.5056 17.8392 37.2693 17.499C37.0366 17.1553 36.6928 16.9834 36.2381 16.9834Z" fill="white"/>
<defs>
<filter id="filter0_d_712_2342" x="0" y="0" width="54" height="35" filterUnits="userSpaceOnUse" color-interpolation-filters="sRGB">
<feFlood flood-opacity="0" result="BackgroundImageFix"/>
<feColorMatrix in="SourceAlpha" type="matrix" values="0 0 0 0 0 0 0 0 0 0 0 0 0 0 0 0 0 0 127 0" result="hardAlpha"/>
<feOffset dy="1"/>
<feGaussianBlur stdDeviation="2.5"/>
<feComposite in2="hardAlpha" operator="out"/>
<feColorMatrix type="matrix" values="0 0 0 0 0 0 0 0 0 0 0 0 0 0 0 0 0 0 0.2 0"/>
<feBlend mode="normal" in2="BackgroundImageFix" result="effect1_dropShadow_712_2342"/>
<feBlend mode="normal" in="SourceGraphic" in2="effect1_dropShadow_712_2342" result="shape"/>
</filter>
</defs>
</svg>
