<svg width="16" height="16" viewBox="0 0 16 16" xmlns="http://www.w3.org/2000/svg">
    <style>
        a>circle {
            fill: #a9aeb8;
            stroke: #a9aeb8;
            stroke-width: 0.75;
        }
        a:hover>circle {
            fill: white;
        }
        a>path {
            fill: white;
        }
        a:hover>path {
            fill: #a9aeb8;
        }
    </style>
    <a href="https://snapeda.com/extension" target="_blank" title="Help">
        <circle cx="8" cy="8" r="7.625" />
        <path d="M7.2627 9.96484V9.52734C7.2627 9.02604 7.35384 8.60905 7.53613 8.27637C7.71842 7.94368 8.03743 7.59961 8.49316 7.24414C9.03548 6.81576 9.38411 6.48307 9.53906 6.24609C9.69857 6.00911 9.77832 5.72656 9.77832 5.39844C9.77832 5.01562 9.65072 4.72168 9.39551 4.5166C9.1403 4.31152 8.77344 4.20898 8.29492 4.20898C7.86198 4.20898 7.46094 4.27051 7.0918 4.39355C6.72266 4.5166 6.36263 4.66471 6.01172 4.83789L5.4375 3.63477C6.36263 3.11979 7.35384 2.8623 8.41113 2.8623C9.30436 2.8623 10.013 3.08105 10.5371 3.51855C11.0612 3.95605 11.3232 4.5599 11.3232 5.33008C11.3232 5.67188 11.2731 5.97721 11.1729 6.24609C11.0726 6.51042 10.9199 6.76335 10.7148 7.00488C10.5143 7.24642 10.1657 7.56087 9.66895 7.94824C9.24512 8.28092 8.96029 8.55664 8.81445 8.77539C8.67318 8.99414 8.60254 9.28809 8.60254 9.65723V9.96484H7.2627ZM6.98242 12.1455C6.98242 11.4574 7.31738 11.1133 7.9873 11.1133C8.31543 11.1133 8.56608 11.2044 8.73926 11.3867C8.91243 11.5645 8.99902 11.8174 8.99902 12.1455C8.99902 12.4691 8.91016 12.7266 8.73242 12.918C8.55924 13.1048 8.31087 13.1982 7.9873 13.1982C7.66374 13.1982 7.41536 13.1071 7.24219 12.9248C7.06901 12.738 6.98242 12.4782 6.98242 12.1455Z"/>
    </a>
</svg>
