<svg width="60" height="78" viewBox="0 0 60 78" fill="none" xmlns="http://www.w3.org/2000/svg">
<path d="M34.2905 59.3646C34.7034 58.7718 35.0794 58.1541 35.4165 57.5152C35.9051 56.5995 36.3256 55.6492 36.6746 54.6718L25.7289 42.2226L24.1688 42.3359L18.6771 42.7196L15.5884 42.9398L14.5694 44.1098L11.6631 47.4439L13.0722 49.5512L13.2169 49.7777L19.1363 49.6959L23.5398 49.6393H23.9298L24.1437 49.8406L24.2129 49.9035L34.2905 59.3646Z" fill="#A0A0A0"/>
<path d="M26.5468 40.2224L26.8613 40.581L41.248 56.9366L44.3618 54.1436L45.2173 51.6714C42.9695 48.4715 40.6503 45.3388 38.2599 42.2732C35.8695 39.2075 33.4245 36.2216 30.925 33.3153C29.0527 33.1668 27.171 33.1816 25.3012 33.3593C24.9238 33.3908 24.5463 33.4348 24.1626 33.4789C22.4021 33.6983 20.6564 34.0239 18.9351 34.4539C18.6709 34.63 18.413 34.8251 18.1676 35.0264C17.6953 35.413 17.2517 35.8335 16.8403 36.2845C16.1756 37.0197 15.5757 37.8111 15.0475 38.6497L15.8087 40.9647L18.5451 40.7697L24.1626 40.3797L26.0498 40.2413L26.5468 40.2224Z" fill="#A0A0A0"/>
<path d="M40.5242 77.3306C43.2063 77.1118 45.796 76.2486 48.073 74.8144C52.294 72.1597 55.8419 67.4166 58.226 60.4088C59.4275 52.2939 58.7985 45.1352 58.226 38.5489C57.4837 30.1823 56.8232 22.7217 60 15.1666L58.2323 14.4117C57.3894 14.0595 56.5402 13.7009 55.6154 13.2857L55.4645 13.2417C54.5712 13.0278 53.5773 13.6003 52.4953 15.0282C51.2372 16.7141 49.9161 19.4317 48.6077 23.3759C47.6955 26.106 46.7897 29.352 45.8901 33.1515C45.4561 34.9129 44.9214 36.4855 43.3298 36.7623C42.0025 36.9951 40.0839 36.0389 37.0392 32.8747C32.9224 29.5051 28.6304 26.3554 24.1812 23.4388C22.6966 22.47 21.2057 21.5516 19.7211 20.652C14.3436 17.4292 8.73121 14.6156 2.93143 12.2352C1.97132 12.916 1.1918 13.8207 0.660518 14.871C0.232487 15.776 0.00707162 16.7635 0 17.7647L18.161 32.6483L18.3183 32.6042C20.2478 32.1216 22.206 31.7623 24.1812 31.5285C24.5083 31.4908 24.8102 31.4531 25.1499 31.4279C27.2673 31.2298 29.3986 31.2298 31.516 31.4279L31.8998 31.4656L32.1577 31.7613C34.7746 34.8018 37.3244 37.9114 39.8071 41.0903C42.2898 44.2691 44.7264 47.5633 47.1168 50.9729L47.3999 51.3818L47.2363 51.8473L46.1292 55.024L46.0474 55.2631L45.8587 55.4266L41.8327 59.05L41.103 59.6791L40.4739 58.9431L38.1589 56.3073C37.8507 57.0433 37.5299 57.7479 37.1713 58.4084C36.7527 59.2013 36.2798 59.9642 35.7559 60.6919L35.1269 61.5474L29.0564 66.7309L28.4273 67.2782L27.7983 66.7246L24.2441 63.6107L22.9482 62.4721L19.8784 62.3023C18.8027 61.6732 19.0921 60.7359 19.9161 60.4151H19.979L23.3886 60.5975H23.722L23.9736 60.824L24.2441 61.0567L28.4462 64.743L33.051 60.8051L24.2441 52.5204L23.2627 51.5956L19.3374 51.646L13.2103 51.734L9.83854 56.4646C14.1979 63.2585 19.1235 68.4986 24.1623 72.0339C26.5964 73.7883 29.2672 75.1883 32.0948 76.192C34.7959 77.1493 37.6659 77.537 40.5242 77.3306Z" fill="#A0A0A0"/>
<path d="M28.6473 14.5377V14.4999L28.641 14.4685L28.6347 14.4307L28.6284 14.393L28.6158 14.3553L28.6032 14.3238L28.5907 14.2861L28.5718 14.2546L28.5529 14.2169L28.5403 14.1917L28.534 14.1854L24.7785 7.95769L24.7597 7.91995L24.7345 7.8885L24.7093 7.85704L24.6842 7.83188L24.659 7.80672L24.6339 7.78156L24.6024 7.75639L24.5709 7.73123L24.5458 7.71236L24.5143 7.69349L24.4829 7.67462L24.4451 7.65574L24.4137 7.64316L24.3759 7.63058L24.3445 7.618L24.3067 7.60542L24.2753 7.59913L24.2375 7.59284L24.1998 7.58655H24.1621H24.1243H24.0866H24.0551L24.0174 7.59284L23.9796 7.59913L23.9419 7.60542L23.9041 7.618L23.8664 7.63058L23.8349 7.64316L23.7972 7.65574L23.7657 7.67462L23.728 7.69349L23.6965 7.71865L23.6651 7.73752L23.6336 7.76269L23.6022 7.78785L23.577 7.81301L23.5519 7.84446L20.7085 10.9457L20.6833 10.9772L20.6582 11.0086L20.633 11.0401L20.6141 11.0716L20.5953 11.1093L20.5764 11.1408L20.5638 11.1722L20.5512 11.2099L20.5387 11.2414L20.5261 11.2791L20.5198 11.3169L20.5135 11.3546L20.5072 11.3924V11.4238V11.4616V11.4993V11.5371L20.5135 11.5748L20.5198 11.6063L20.5261 11.644L20.5387 11.6817L20.5512 11.7132L20.5638 11.7509L20.5764 11.7824L20.5953 11.8201L20.6079 11.8516L20.633 11.883L20.6519 11.9145L20.677 11.946L20.7022 11.9774L20.7274 12.0026L20.7525 12.0277L20.784 12.0529L20.7903 12.0592L26.0555 16.3368L26.087 16.362L26.1184 16.3808L26.1499 16.406L26.1876 16.4249L26.2191 16.4375L26.2568 16.4563L26.2883 16.4689L26.326 16.4752L26.3638 16.4878L26.3952 16.4941L26.433 16.5004L26.4707 16.5067H26.5085H26.5462H26.5839L26.6154 16.5004H26.6531L26.6909 16.4941L26.7286 16.4815L26.7601 16.4752L26.7978 16.4626L26.8293 16.45L26.867 16.4375L26.8985 16.4186L26.9299 16.3997L26.9614 16.3808L26.9928 16.3557L27.0243 16.3368L27.0369 16.3242L28.3831 15.173L28.4145 15.1479L28.4397 15.1164L28.4648 15.0913L28.49 15.0598L28.5152 15.0284L28.534 14.9969L28.5529 14.9655L28.5718 14.934L28.5844 14.8963L28.6032 14.8648L28.6158 14.8271L28.6221 14.7956L28.6347 14.7579L28.641 14.7201L28.6473 14.6824V14.6509L28.6536 14.6132V14.5754L28.6473 14.5377Z" fill="#FF8330"/>
<path d="M36.6493 14.9906L36.643 14.9591V14.9528L34.976 0.679388L34.9697 0.635353L34.9634 0.59761L34.9508 0.559866L34.9445 0.522122L34.9319 0.490669L34.9131 0.452925L34.9005 0.421472L34.8816 0.390019L34.8627 0.352275L34.8439 0.327113L34.8187 0.295659L34.7935 0.264206L34.7684 0.239044L34.7432 0.213881L34.7181 0.188719L34.6866 0.163556L34.6614 0.144684L34.63 0.125813L34.5985 0.10065L34.5671 0.0880688L34.5356 0.0691969L34.4979 0.0566156L34.4664 0.0440344L34.4287 0.0314531L34.3909 0.0188719L34.3595 0.0125813L34.3217 0.00629063L34.2777 0H34.2463H34.2022H34.1645L34.1267 0.00629063L34.089 0.0125813L34.0512 0.0188719L34.0135 0.0251625L33.9758 0.0377438L33.938 0.050325L33.9317 0.0566156L28.5218 2.22688L28.484 2.23946L28.4526 2.25834L28.4211 2.27721L28.3834 2.29608L28.3519 2.32124L28.3268 2.34011L28.2953 2.36528L28.2702 2.39044L28.245 2.42189L28.2198 2.44705L28.1947 2.47851L28.1758 2.50367L28.1569 2.54141L28.1381 2.56658L28.1192 2.60432L28.1066 2.63577L28.094 2.66723L28.0814 2.70497L28.0689 2.74271L28.0626 2.77417L28.0563 2.81191L28.05 2.84965L28.0437 2.8874V2.92514V2.96289V2.99434L28.05 3.03837L28.0563 3.06983L28.0626 3.11386L28.0752 3.14531L28.0814 3.18306L28.1003 3.2208L33.1643 15.909L33.1769 15.9467L33.1957 15.9845L33.2146 16.0159L33.2335 16.0474L33.2586 16.0788L33.2775 16.1103L33.3027 16.1355L33.3278 16.1669L33.3593 16.1921L33.3844 16.2172L33.4159 16.2361L33.4473 16.2613L33.4725 16.2801L33.504 16.299L33.5417 16.3116L33.5732 16.3305L33.6046 16.343L33.6424 16.3556L33.6738 16.3682L33.7116 16.3745L33.7493 16.3808L33.787 16.3871H33.8248L33.8562 16.3934H33.894L33.938 16.3871H33.9695L34.0072 16.3808L34.045 16.3745L34.0827 16.3619H34.089L36.0957 15.7832L36.1334 15.7706L36.1712 15.758L36.2089 15.7454L36.2404 15.7266L36.2718 15.7077L36.3033 15.6888L36.3347 15.67L36.3662 15.6448L36.3977 15.6196L36.4228 15.5945L36.448 15.5693L36.4731 15.5441L36.4983 15.5127L36.5172 15.4812L36.536 15.4498L36.5549 15.4183L36.5738 15.3869L36.5864 15.3554L36.6052 15.3177L36.6115 15.2862L36.6241 15.2485L36.6367 15.217L36.643 15.1793V15.1415L36.6493 15.1038V15.0661V15.0283V14.9906Z" fill="#FF8330"/>
<path d="M45.7451 6.60524V6.5675L45.7388 6.52976L45.7326 6.4983L45.72 6.46056L45.7137 6.42282L45.7011 6.39136L45.6885 6.35991L45.6696 6.32217L45.6571 6.29071L45.6382 6.25926L45.613 6.22781L45.5942 6.19635L45.569 6.17119L45.5438 6.13974L45.5187 6.11457L45.4935 6.08941L45.4621 6.06425L45.4306 6.03909L45.4054 6.02022L45.3677 6.00134L45.3362 5.98247L45.2985 5.9636L45.2608 5.94473L45.2293 5.93215L45.1916 5.91957L45.1538 5.91327L45.1287 5.90698L40.7818 5.00113L40.7441 4.99484L40.7001 4.98855L40.6623 4.98226H40.6246H40.5868L40.5491 4.98855H40.5113L40.4736 5.00113L40.4358 5.00742L40.4044 5.01371L40.3666 5.0263L40.3352 5.03888L40.2975 5.05775L40.266 5.07033L40.2345 5.0892L40.2031 5.10807L40.1716 5.12695L40.1465 5.15211L40.115 5.17727L40.0899 5.20243L40.0647 5.2276L40.0395 5.25276L40.0144 5.28421L39.9955 5.31566L39.9703 5.34712L39.9515 5.37857L39.9389 5.41002L39.92 5.44777L39.9074 5.47922L39.8949 5.51697L39.8823 5.55471L39.876 5.59245L39.8697 5.6302L39.8634 5.66794L39.8571 5.70568V5.71827L39.5803 12.7826V12.8204V12.8644L39.5866 12.9022L39.5929 12.9399L39.5992 12.9776L39.6055 13.0091L39.6181 13.0468L39.6306 13.0846L39.6432 13.116L39.6558 13.1538L39.6747 13.1852L39.6936 13.2167L39.7124 13.2481L39.7376 13.2796L39.7565 13.3048L39.7816 13.3362L39.8068 13.3614L39.8319 13.3865L39.8634 13.4117L39.8949 13.4306L39.92 13.4557L39.9515 13.4746L39.9892 13.4935L40.0207 13.5061L40.0521 13.5249L40.0899 13.5375L40.1213 13.5501L40.1591 13.5564H40.1716L41.8135 13.9653L41.8512 13.9716L41.889 13.9841H41.933L41.9708 13.9904H42.0085H42.0462L42.084 13.9841L42.1154 13.9779L42.1532 13.9716L42.1909 13.9653L42.2287 13.9527L42.2601 13.9401L42.2979 13.9275L42.3293 13.915L42.3608 13.8961L42.3922 13.8772L42.4237 13.8583L42.4551 13.8395L42.4866 13.8143L42.5118 13.7891L42.5369 13.764L42.5621 13.7388L42.5872 13.7137L42.6124 13.6822L42.6313 13.6507L42.6564 13.6193L42.6753 13.5878L42.6879 13.5564L42.6942 13.5375L45.6822 6.97639L45.6948 6.93865L45.7074 6.9009L45.72 6.86316L45.7326 6.83171L45.7388 6.79396L45.7451 6.75622V6.71848V6.68073L45.7514 6.64299L45.7451 6.60524Z" fill="#FF8330"/>
</svg>
