<svg width="400" height="400" viewBox="0 0 400 400" fill="none" xmlns="http://www.w3.org/2000/svg">
<rect width="400" height="400" fill="#FF8030"/>
<path d="M272.461 183.792C275.942 180.312 275.942 174.67 272.461 171.189C268.981 167.709 263.339 167.709 259.859 171.189C256.379 174.67 256.379 180.312 259.859 183.792C263.339 187.272 268.981 187.272 272.461 183.792Z" fill="white"/>
<path d="M213.054 225.307C214.185 220.517 211.219 215.717 206.429 214.586C201.639 213.455 196.839 216.421 195.708 221.211C194.577 226.001 197.543 230.801 202.333 231.932C207.123 233.063 211.923 230.096 213.054 225.307Z" fill="white"/>
<path d="M330.639 105H148.59C143.423 105 139.23 109.194 139.23 114.361L132.939 172.323H246.766C249.088 163.786 256.951 157.42 266.237 157.42C277.395 157.42 286.381 166.482 286.381 177.565C286.381 188.648 277.32 197.709 266.237 197.709C257.176 197.709 249.537 191.718 246.991 183.556H91.1527C89.7298 181.684 88.6065 179.437 85.5362 163.711C82.391 179.437 81.3426 181.684 79.9197 183.556C78.0476 184.979 75.801 186.102 60.0748 189.172C75.801 192.317 78.0476 193.366 79.9197 194.789C81.3426 196.661 82.4658 198.907 85.5362 214.634C88.6065 198.907 89.7298 196.661 91.1527 194.789L145.745 194.864C148.815 194.864 151.361 197.41 151.361 200.48C151.361 203.625 148.89 206.097 145.745 206.097L114.367 206.022C111.297 206.022 108.751 208.643 108.751 211.863C108.751 215.083 111.297 217.704 114.367 217.704H185.135C187.606 209.317 195.32 203.176 204.456 203.176C215.539 203.176 224.6 212.237 224.6 223.32C224.6 234.404 215.614 243.465 204.456 243.465C195.245 243.465 187.531 237.324 185.135 228.937H126.724L120.508 286.075C120.508 291.242 124.702 295.436 129.869 295.436H311.918C317.085 295.436 321.278 291.242 321.278 286.075L340 114.436C340 109.194 335.806 105 330.639 105Z" fill="white"/>
<path d="M68.6119 215.083C67.5635 209.766 67.1891 209.017 66.7398 208.343C66.1407 207.894 65.3169 207.519 60 206.471C65.3169 205.423 66.0658 205.048 66.7398 204.599C67.1891 204 67.5635 203.176 68.6119 197.859C69.6603 203.176 70.0348 203.925 70.4841 204.599C71.0832 205.048 71.9069 205.423 77.2239 206.471C71.9069 207.519 71.1581 207.894 70.4841 208.343C70.0348 209.017 69.6603 209.766 68.6119 215.083Z" fill="white"/>
</svg>
