<?xml version="1.0" encoding="UTF-8"?>
<svg id="Layer_1" data-name="Layer 1" xmlns="http://www.w3.org/2000/svg" version="1.1" viewBox="0 0 400 400">
  <defs>
    <style>
      .cls-1 {
        fill: #e1e1e1;
      }

      .cls-1, .cls-2 {
        stroke-width: 0px;
      }

      .cls-2 {
        fill: #fff;
      }
    </style>
  </defs>
  <rect class="cls-1" width="400" height="400"/>
  <path class="cls-2" d="M272.5,183.8c3.5-3.5,3.5-9.1,0-12.6-3.5-3.5-9.1-3.5-12.6,0-3.5,3.5-3.5,9.1,0,12.6,3.5,3.5,9.1,3.5,12.6,0Z"/>
  <path class="cls-2" d="M213.1,225.3c1.1-4.8-1.8-9.6-6.6-10.7s-9.6,1.8-10.7,6.6c-1.1,4.8,1.8,9.6,6.6,10.7,4.8,1.1,9.6-1.8,10.7-6.6Z"/>
  <path class="cls-2" d="M330.6,105h-182c-5.2,0-9.4,4.2-9.4,9.4l-6.3,58h113.8c2.3-8.5,10.2-14.9,19.5-14.9s20.1,9.1,20.1,20.1-9.1,20.1-20.1,20.1-16.7-6-19.2-14.2H91.2c-1.4-1.9-2.5-4.1-5.6-19.8-3.1,15.7-4.2,18-5.6,19.8-1.9,1.4-4.1,2.5-19.8,5.6,15.7,3.1,18,4.2,19.8,5.6,1.4,1.9,2.5,4.1,5.6,19.8,3.1-15.7,4.2-18,5.6-19.8h54.6c3.1,0,5.6,2.6,5.6,5.7s-2.5,5.6-5.6,5.6h-31.4c-3.1,0-5.6,2.5-5.6,5.8s2.5,5.8,5.6,5.8h70.8c2.5-8.4,10.2-14.5,19.3-14.5s20.1,9.1,20.1,20.1-9,20.1-20.1,20.1-16.9-6.1-19.3-14.5h-58.4l-6.2,57.1c0,5.2,4.2,9.4,9.4,9.4h182c5.2,0,9.4-4.2,9.4-9.4l18.7-171.6c0-5.2-4.2-9.4-9.4-9.4Z"/>
  <path class="cls-2" d="M68.6,215.1c-1-5.3-1.4-6.1-1.9-6.7-.6-.4-1.4-.8-6.7-1.9,5.3-1,6.1-1.4,6.7-1.9.4-.6.8-1.4,1.9-6.7,1,5.3,1.4,6.1,1.9,6.7.6.4,1.4.8,6.7,1.9-5.3,1-6.1,1.4-6.7,1.9-.4.7-.8,1.4-1.9,6.7Z"/>
</svg>