<svg width="216" height="34" viewBox="0 0 216 34" fill="none" xmlns="http://www.w3.org/2000/svg">
    <path
        d="M51.613 0.321045C53.8605 0.321045 55.9474 0.642115 57.633 1.36452C59.3187 2.08693 60.924 3.13041 62.2083 4.49495L59.1581 8.58859C58.1146 7.46485 56.9106 6.66217 55.7066 6.1003C54.5026 5.53843 53.0578 5.29763 51.5327 5.29763C50.6498 5.29763 49.8471 5.37789 49.2852 5.6187C48.7234 5.77923 48.322 6.1003 48.0812 6.42137C47.8404 6.74244 47.6799 7.14378 47.6799 7.62538C47.6799 8.10699 47.9207 8.58859 48.4023 8.90966C48.8839 9.23073 49.6866 9.5518 50.73 9.7926L54.8237 10.7558C57.312 11.3177 59.0779 12.1204 60.2016 13.2441C61.3253 14.3678 61.8872 15.8127 61.8872 17.5785C61.8872 19.3444 61.4056 20.7892 60.5227 21.9933C59.6397 23.1973 58.4357 24.0802 56.8304 24.7223C55.3053 25.3645 53.4591 25.6053 51.4524 25.6053C49.8471 25.6053 48.2417 25.4448 46.7969 25.0434C45.2719 24.7223 43.9876 24.1605 42.7836 23.5183C41.5795 22.8762 40.6163 22.0735 39.7334 21.1906L42.7836 16.9364C43.4257 17.6588 44.1481 18.301 45.1113 18.8628C45.9943 19.4247 47.0377 19.826 48.0812 20.1471C49.1247 20.4682 50.2484 20.6287 51.3722 20.6287C52.2551 20.6287 52.9775 20.5484 53.5394 20.3879C54.1013 20.2274 54.5829 19.9866 54.8237 19.5852C55.0645 19.2642 55.225 18.8628 55.225 18.3812C55.225 17.8996 55.0645 17.418 54.6631 17.0969C54.2618 16.7759 53.6197 16.4548 52.5762 16.214L48.0812 15.1705C46.7167 14.8495 45.4324 14.4481 44.3889 13.8862C43.3454 13.3244 42.4625 12.602 41.8204 11.719C41.1782 10.8361 40.8571 9.71233 40.8571 8.34779C40.8571 6.82271 41.2585 5.45816 42.1414 4.25415C42.9441 3.05014 44.2284 2.08693 45.7535 1.44479C47.5193 0.722382 49.4458 0.321045 51.613 0.321045Z"
        fill="#304F71" />
    <path
        d="M63.4123 25.6052L63.332 7.70557H68.6297L69.031 14.0467L68.3889 13.4046C68.6297 12.1203 69.031 11.0768 69.6732 10.2741C70.235 9.39118 71.0377 8.82931 71.9206 8.34771C72.8036 7.94637 73.8471 7.70557 74.9708 7.70557C76.1748 7.70557 77.2183 7.94637 78.1815 8.42797C79.0644 8.90958 79.7869 9.55172 80.2685 10.5149C80.7501 11.3979 81.0711 12.6019 81.0711 13.9664V25.6855H75.1313V15.4915C75.1313 14.2875 74.8905 13.4046 74.4089 13.0032C73.9273 12.5216 73.3655 12.2808 72.6431 12.2808C72.0812 12.2808 71.5193 12.4413 71.0377 12.6821C70.5561 12.9229 70.1548 13.4046 69.914 13.9664C69.5929 14.5283 69.5126 15.331 69.5126 16.2942V25.6052H63.4123Z"
        fill="#304F71" />
    <path
        d="M100.014 21.9129C99.2116 21.9129 98.8103 21.4313 98.8103 20.5484V14.2072C98.8103 12.7624 98.4892 11.5584 97.8471 10.5952C97.2049 9.63198 96.322 8.90958 95.118 8.42797C93.914 7.94637 92.4692 7.70557 90.8638 7.70557C88.3755 7.70557 86.4491 8.18717 85.0846 9.15038C83.72 10.1136 82.8371 11.4781 82.516 13.0835L87.4926 14.2875C87.7334 13.3243 88.0545 12.6821 88.6163 12.2808C89.1782 11.8795 89.8203 11.7189 90.5428 11.7189C91.2652 11.7189 91.9073 11.9597 92.3086 12.4413C92.7902 12.923 92.9508 13.5651 92.9508 14.3678V14.8494L87.011 16.0534C85.4056 16.3745 84.2016 16.9363 83.4792 17.739C82.7568 18.5417 82.3555 19.5851 82.3555 20.7892C82.3555 21.8326 82.5963 22.7156 83.0779 23.3577C83.5595 24.0801 84.2016 24.5617 85.0846 24.9631C85.9675 25.3644 87.011 25.5249 88.1347 25.5249C89.1782 25.5249 90.1414 25.3644 91.0244 25.0433C91.9876 24.7223 92.71 24.2407 93.2718 23.5985C93.4324 23.438 93.5929 23.1972 93.6732 22.9564C93.7534 23.2775 93.914 23.5183 94.0745 23.7591C94.4759 24.3209 94.9575 24.8025 95.6799 25.0433C96.4023 25.3644 97.1247 25.4447 98.0879 25.4447C99.0511 25.4447 99.8538 25.2841 100.576 24.9631V21.6721C100.416 21.9129 100.255 21.9129 100.014 21.9129ZM92.9508 18.8627C92.9508 19.3443 92.8705 19.8259 92.71 20.147C92.5494 20.5484 92.3086 20.7892 92.0678 21.03C91.827 21.2708 91.506 21.4313 91.1046 21.5918C90.7033 21.6721 90.3822 21.7524 89.9809 21.7524C89.4993 21.7524 89.0177 21.6721 88.6966 21.351C88.2953 21.1102 88.1347 20.7089 88.1347 20.2273C88.1347 19.6654 88.2953 19.2641 88.6163 19.0233C88.9374 18.7825 89.4993 18.5417 90.1414 18.4614L92.9508 17.8995V18.8627Z"
        fill="#304F71" />
    <path
        d="M102.021 32.5082V7.70557H107.318L107.639 14.2875L106.917 13.5651C107.077 12.4413 107.398 11.3979 107.96 10.5149C108.522 9.63198 109.245 8.98985 110.128 8.42797C111.01 7.94637 111.974 7.70557 113.097 7.70557C114.542 7.70557 115.746 8.02664 116.79 8.74904C117.833 9.47145 118.636 10.4347 119.278 11.7992C119.84 13.0835 120.161 14.6888 120.161 16.6153C120.161 18.4614 119.84 20.147 119.278 21.4313C118.716 22.7958 117.833 23.8393 116.79 24.5617C115.746 25.2841 114.462 25.6052 113.017 25.6052C111.492 25.6052 110.208 25.1236 109.245 24.2407C108.281 23.2775 107.639 22.1537 107.318 20.7089L107.88 19.9062V32.5082H102.021ZM111.091 21.2708C112.134 21.2708 112.857 20.8694 113.499 20.147C114.061 19.4246 114.382 18.2206 114.382 16.6153C114.382 15.0099 114.141 13.8059 113.499 13.0835C112.937 12.3611 112.134 11.9597 111.171 11.9597C110.529 11.9597 109.967 12.1203 109.485 12.5216C109.004 12.8427 108.602 13.4046 108.362 14.0467C108.121 14.7691 107.96 15.5718 107.96 16.6153C107.96 17.5785 108.121 18.3811 108.281 19.1035C108.522 19.8259 108.924 20.3076 109.325 20.7089C109.806 21.1102 110.368 21.2708 111.091 21.2708Z"
        fill="#304F71" />
    <path
        d="M150.744 0.401367V25.6053H144.964V14.0468L145.125 6.26089H145.045L138.864 25.6053H133.566L127.386 6.26089H127.305L127.466 14.0468V25.6053H121.606V0.401367H130.917L134.851 13.2442L136.295 18.6221H136.376L137.82 13.3244L141.754 0.481635H150.744V0.401367Z"
        fill="#304F71" />
    <path
        d="M188.148 23.0369C187.024 22.1539 185.499 21.7526 183.493 21.7526H177.954C177.312 21.7526 176.83 21.6723 176.509 21.4315C176.188 21.271 176.028 20.9499 176.028 20.5486C176.028 20.1472 176.188 19.8262 176.59 19.5854C176.75 19.5051 176.911 19.4248 177.232 19.3446C177.553 19.2643 178.034 19.184 178.596 19.184H179.158L176.991 18.1405C176.188 18.1405 175.546 18.3011 174.904 18.5419C174.342 18.7024 173.861 19.0235 173.459 19.3446C172.576 20.067 172.095 20.9499 172.095 22.0737C172.095 23.1974 172.416 24.0803 173.138 24.7225C173.539 25.0435 174.021 25.3646 174.663 25.6054C173.78 25.766 173.058 26.0068 172.496 26.4081C171.693 27.0502 171.292 27.8529 171.292 28.8161C171.292 30.1807 172.014 31.2241 173.379 32.0268C174.824 32.8295 177.071 33.2308 180.282 33.2308C182.289 33.2308 183.974 32.99 185.419 32.5084C186.864 32.0268 187.988 31.3044 188.79 30.3412C189.593 29.378 189.994 28.174 189.994 26.7292C189.754 25.0435 189.192 23.8395 188.148 23.0369ZM184.616 28.4148C184.215 28.6556 183.653 28.8964 182.931 29.0569C182.208 29.2175 181.245 29.2977 180.121 29.2977C178.677 29.2977 177.553 29.1372 176.83 28.8161C176.028 28.495 175.626 28.0937 175.626 27.5318C175.626 27.2108 175.787 26.8897 176.028 26.6489C176.269 26.4081 176.67 26.3278 177.071 26.3278H183.332C183.974 26.3278 184.456 26.4081 184.777 26.6489C185.098 26.8897 185.178 27.1305 185.178 27.4516C185.178 27.8529 185.018 28.174 184.616 28.4148ZM187.827 10.4349C187.426 9.873 186.864 9.3914 186.222 9.07033C185.82 8.82952 185.419 8.66899 184.937 8.42819C184.697 8.34792 184.376 8.26765 184.055 8.18738C183.011 7.94658 181.727 7.78605 180.362 7.78605C178.596 7.78605 176.991 8.02685 175.787 8.50845C174.503 8.99006 173.539 9.6322 172.897 10.5151C172.255 11.3981 171.934 12.4416 171.934 13.7258C171.934 15.6523 172.657 17.0971 174.101 18.1405C174.342 18.3011 174.503 18.4616 174.743 18.5419C175.386 18.9432 176.188 19.184 177.071 19.3446C178.034 19.5051 179.158 19.6656 180.362 19.6656C182.128 19.6656 183.653 19.4248 184.937 18.9432C186.222 18.4616 187.185 17.8195 187.827 16.9365C188.469 16.0536 188.79 14.9298 188.79 13.7258C188.79 12.4416 188.469 11.3178 187.827 10.4349ZM182.208 15.572C181.727 16.0536 181.085 16.2141 180.362 16.2141C179.56 16.2141 178.998 15.9733 178.516 15.572C178.034 15.0904 177.794 14.5285 177.794 13.7258C177.794 12.9232 178.034 12.281 178.516 11.7994C178.998 11.3981 179.64 11.1573 180.362 11.1573C181.085 11.1573 181.727 11.3981 182.208 11.7994C182.69 12.281 182.931 12.8429 182.931 13.7258C182.931 14.4482 182.69 15.0904 182.208 15.572ZM189.192 3.37134H188.951C187.827 3.37134 186.864 3.61214 186.141 4.17401C185.419 4.73588 184.857 5.45829 184.536 6.34123C184.295 6.90311 184.135 7.54524 184.055 8.10712C183.974 8.42819 183.974 8.74926 183.974 9.07033L186.061 9.873C186.061 9.55193 186.061 9.31113 186.222 8.99006C186.382 8.58872 186.543 8.26765 186.864 7.94658C187.345 7.46498 188.148 7.22417 189.111 7.22417C189.192 7.22417 189.272 7.22417 189.352 7.22417V3.37134C189.352 3.37134 189.272 3.37134 189.192 3.37134Z"
        fill="#304F71" />
    <path
        d="M194.168 5.85955C193.125 5.85955 192.402 5.61875 191.921 5.21741C191.439 4.81608 191.198 4.09367 191.198 3.13046C191.198 2.16725 191.439 1.44484 191.921 1.04351C192.402 0.64217 193.125 0.401367 194.168 0.401367C195.212 0.401367 195.934 0.64217 196.416 1.04351C196.897 1.44484 197.138 2.16725 197.138 3.13046C197.138 4.09367 196.897 4.73581 196.416 5.21741C195.934 5.61875 195.212 5.85955 194.168 5.85955ZM197.138 7.7057V25.6053H191.198V7.7057H197.138Z"
        fill="#304F71" />
    <path
        d="M207.653 7.70557C209.419 7.70557 210.864 7.94637 211.987 8.42797C213.111 8.90958 214.074 9.55172 214.717 10.3544C215.359 11.1571 215.76 12.04 215.921 13.0032L210.543 14.7691C210.382 13.8059 210.061 13.0835 209.66 12.5216C209.258 12.04 208.616 11.7992 207.814 11.7992C207.091 11.7992 206.449 11.9597 205.967 12.2808C205.486 12.6019 205.084 13.1638 204.844 13.8862C204.603 14.6086 204.442 15.5718 204.442 16.6955C204.442 17.8193 204.603 18.7022 204.844 19.4246C205.084 20.147 205.486 20.6286 206.048 20.9497C206.529 21.2708 207.171 21.4313 207.814 21.4313C208.375 21.4313 208.857 21.351 209.258 21.1102C209.66 20.8694 209.981 20.5484 210.222 20.147C210.462 19.7457 210.623 19.2641 210.703 18.6219L216.001 20.3076C215.84 21.351 215.439 22.234 214.717 23.0366C213.994 23.8393 213.111 24.4815 211.907 24.8828C210.783 25.3644 209.419 25.6052 207.894 25.6052C206.048 25.6052 204.362 25.2841 202.998 24.5617C201.633 23.8393 200.509 22.8761 199.787 21.5116C199.064 20.147 198.663 18.5417 198.663 16.6955C198.663 14.8494 199.064 13.244 199.787 11.8795C200.509 10.5149 201.633 9.55172 202.998 8.82931C204.282 8.1069 205.807 7.70557 207.653 7.70557Z"
        fill="#304F71" />
    <path
        d="M169.846 21.9129C169.044 21.9129 168.642 21.4313 168.642 20.5484V14.2072C168.642 12.7624 168.321 11.5584 167.679 10.5952C167.037 9.63198 166.154 8.90958 164.95 8.42797C163.746 7.94637 162.301 7.70557 160.696 7.70557C158.208 7.70557 156.281 8.18717 154.917 9.15038C153.552 10.1136 152.669 11.4781 152.348 13.0835L157.325 14.2875C157.565 13.3243 157.886 12.6821 158.448 12.2808C159.01 11.8795 159.652 11.7189 160.375 11.7189C161.097 11.7189 161.739 11.9597 162.141 12.4413C162.622 12.923 162.783 13.5651 162.783 14.3678V14.8494L156.843 16.0534C155.238 16.3745 154.034 16.9363 153.311 17.739C152.589 18.5417 152.188 19.5851 152.188 20.7892C152.188 21.8326 152.428 22.7156 152.91 23.3577C153.392 24.0801 154.034 24.5617 154.917 24.9631C155.8 25.3644 156.843 25.5249 157.967 25.5249C159.01 25.5249 159.973 25.3644 160.856 25.0433C161.82 24.7223 162.542 24.2407 163.104 23.5985C163.264 23.438 163.425 23.1972 163.505 22.9564C163.585 23.2775 163.746 23.5183 163.907 23.7591C164.308 24.3209 164.789 24.8025 165.512 25.0433C166.234 25.3644 166.957 25.4447 167.92 25.4447C168.883 25.4447 169.686 25.2841 170.408 24.9631V21.6721C170.248 21.9129 170.087 21.9129 169.846 21.9129ZM162.783 18.8627C162.783 19.3443 162.703 19.8259 162.542 20.147C162.381 20.5484 162.141 20.7892 161.9 21.03C161.659 21.2708 161.338 21.4313 160.937 21.5918C160.535 21.6721 160.214 21.7524 159.813 21.7524C159.331 21.7524 158.85 21.6721 158.529 21.351C158.127 21.1102 157.967 20.7089 157.967 20.2273C157.967 19.6654 158.127 19.2641 158.448 19.0233C158.769 18.7825 159.331 18.5417 159.973 18.4614L162.783 17.8995V18.8627Z"
        fill="#304F71" />
    <path
        d="M28.9765 10.7558C29.4581 10.2742 29.4581 9.55179 28.9765 9.07019C28.4949 8.58858 27.7725 8.58858 27.2909 9.07019C26.8093 9.55179 26.8093 10.2742 27.2909 10.7558C27.7725 11.2374 28.5752 11.2374 28.9765 10.7558Z"
        fill="#FF8030" />
    <path
        d="M20.9501 16.3747C21.1106 15.7326 20.7093 15.0905 20.0671 14.9299C19.425 14.7694 18.7828 15.1707 18.6223 15.8129C18.4618 16.455 18.8631 17.0972 19.5053 17.2577C20.0671 17.4985 20.7895 17.0972 20.9501 16.3747Z"
        fill="#FF8030" />
    <path
        d="M36.923 0H12.1204C11.398 0 10.8361 0.561872 10.8361 1.28428L10.0334 9.23076H25.525C25.8461 8.10701 26.8896 7.22407 28.1739 7.22407C29.699 7.22407 30.903 8.42808 30.903 9.95316C30.903 11.4782 29.699 12.6823 28.1739 12.6823C26.9699 12.6823 25.9264 11.8796 25.525 10.7558H4.33444C4.17391 10.515 4.01337 10.194 3.53177 8.02674C3.13043 10.194 2.9699 10.515 2.72909 10.7558C2.48829 10.9164 2.16722 11.0769 0 11.5585C2.16722 11.9598 2.48829 12.1204 2.72909 12.3612C2.88963 12.602 3.05016 12.9231 3.53177 15.0903C3.9331 12.9231 4.09364 12.602 4.33444 12.3612H11.7993C12.2007 12.3612 12.602 12.6823 12.602 13.1639C12.602 13.5652 12.2809 13.9665 11.7993 13.9665H7.54514C7.1438 13.9665 6.74246 14.2876 6.74246 14.7692C6.74246 15.2508 7.06353 15.5719 7.54514 15.5719H17.1772C17.4983 14.4481 18.5418 13.5652 19.8261 13.5652C21.3511 13.5652 22.5552 14.7692 22.5552 16.2943C22.5552 17.8194 21.3511 19.0234 19.8261 19.0234C18.5418 19.0234 17.4983 18.2207 17.1772 17.0167H9.23076L8.34781 24.8026C8.34781 25.525 8.90969 26.0869 9.63209 26.0869H34.4347C35.1571 26.0869 35.719 25.525 35.719 24.8026L38.2876 1.44481C38.2073 0.561872 37.6454 0 36.923 0Z"
        fill="#FF8030" />
    <path
        d="M1.20382 15.0099C1.04329 14.2875 1.04329 14.2073 0.96302 14.127C0.882753 14.0467 0.802485 14.0467 0.0800781 13.8862C0.802485 13.7257 0.882753 13.7257 0.96302 13.6454C1.04329 13.5651 1.04329 13.4849 1.20382 12.7625C1.36436 13.4849 1.36436 13.5651 1.44462 13.6454C1.52489 13.7257 1.60516 13.7257 2.32757 13.8862C1.60516 14.0467 1.52489 14.0467 1.44462 14.127C1.44462 14.2073 1.36436 14.2875 1.20382 15.0099Z"
        fill="#FF8030" />
</svg>